<?xml version="1.0" encoding="UTF-8" standalone="no"?>
<!-- Created with Inkscape (http://www.inkscape.org/) -->

<svg
   xmlns:dc="http://purl.org/dc/elements/1.1/"
   xmlns:cc="http://creativecommons.org/ns#"
   xmlns:rdf="http://www.w3.org/1999/02/22-rdf-syntax-ns#"
   xmlns:svg="http://www.w3.org/2000/svg"
   xmlns="http://www.w3.org/2000/svg"
   xmlns:sodipodi="http://sodipodi.sourceforge.net/DTD/sodipodi-0.dtd"
   xmlns:inkscape="http://www.inkscape.org/namespaces/inkscape"
   width="64mm"
   height="64mm"
   viewBox="0 0 64 64"
   version="1.1"
   id="svg3822"
   sodipodi:docname="c.svg"
   inkscape:version="0.92.4 (5da689c313, 2019-01-14)">
  <defs
     id="defs3816" />
  <sodipodi:namedview
     id="base"
     pagecolor="#ffffff"
     bordercolor="#666666"
     borderopacity="1.0"
     inkscape:pageopacity="0.0"
     inkscape:pageshadow="2"
     inkscape:zoom="0.35"
     inkscape:cx="400"
     inkscape:cy="560"
     inkscape:document-units="mm"
     inkscape:current-layer="layer1"
     showgrid="false"
     inkscape:window-width="1920"
     inkscape:window-height="1017"
     inkscape:window-x="-8"
     inkscape:window-y="-8"
     inkscape:window-maximized="1" />
  <metadata
     id="metadata3819">
    <rdf:RDF>
      <cc:Work
         rdf:about="">
        <dc:format>image/svg+xml</dc:format>
        <dc:type
           rdf:resource="http://purl.org/dc/dcmitype/StillImage" />
        <dc:title></dc:title>
      </cc:Work>
    </rdf:RDF>
  </metadata>
  <g
     inkscape:label="Layer 1"
     inkscape:groupmode="layer"
     id="layer1"
     transform="translate(0,-233)">
    <path
       style="color:#000000;font-style:normal;font-variant:normal;font-weight:normal;font-stretch:normal;font-size:medium;line-height:normal;font-family:sans-serif;text-indent:0;text-align:start;text-decoration:none;text-decoration-line:none;text-decoration-style:solid;text-decoration-color:#000000;letter-spacing:normal;word-spacing:normal;text-transform:none;writing-mode:lr-tb;direction:ltr;baseline-shift:baseline;text-anchor:start;white-space:normal;clip-rule:nonzero;display:inline;overflow:visible;visibility:visible;opacity:1;isolation:auto;mix-blend-mode:normal;color-interpolation:sRGB;color-interpolation-filters:linearRGB;solid-color:#000000;solid-opacity:1;fill:#93a7c0;fill-opacity:1;fill-rule:nonzero;stroke:none;stroke-width:0.22057396;stroke-linecap:round;stroke-linejoin:round;stroke-miterlimit:10;stroke-dasharray:none;stroke-dashoffset:0;stroke-opacity:1;color-rendering:auto;image-rendering:auto;shape-rendering:auto;text-rendering:auto;enable-background:accumulate"
       d="m 36.291457,295.62981 -3.079855,-0.18499 c -0.0037,-3.3e-4 -0.0074,-9.8e-4 -0.01103,-10e-4 l -3.045183,-0.49334 c -0.0037,-3.4e-4 -0.0074,-0.001 -0.01103,-0.002 l -2.981029,-0.79827 c -0.0037,-9.7e-4 -0.0074,-0.002 -0.01103,-0.004 l -2.884728,-1.09307 c -0.0037,-10e-4 -0.0074,-0.002 -0.0098,-0.005 l -2.760554,-1.37774 c -0.0037,-10e-4 -0.0074,-0.002 -0.0098,-0.005 l -2.607657,-1.64889 c -0.0025,-0.002 -0.0061,-0.005 -0.0098,-0.007 l -2.429203,-1.90161 c -0.0025,-0.002 -0.0061,-0.005 -0.0086,-0.007 l -2.224991,-2.13718 c -0.0025,-0.002 -0.0049,-0.006 -0.0074,-0.009 l -1.999461,-2.34915 c -0.0024,-0.002 -0.0049,-0.006 -0.0061,-0.01 l -1.75364,-2.53924 c -0.0012,-0.002 -0.0037,-0.006 -0.0049,-0.01 l -1.4892341,-2.70232 c -0.00123,-0.004 -0.00368,-0.006 -0.0049,-0.01 L 7.7318656,275.4958 c -0.00123,-0.004 -0.00245,-0.006 -0.0049,-0.01 l -0.918209,-2.94633 c -8.704e-4,-0.004 -0.00123,-0.007 -0.00245,-0.01 l -0.6166428,-3.02322 c -8.704e-4,-0.004 -0.00123,-0.007 -0.00123,-0.011 l -0.3108592,-3.06973 c -2.084e-4,-0.004 -2.084e-4,-0.007 0,-0.0123 v -3.08493 c -1.839e-4,-0.004 -1.839e-4,-0.007 0,-0.011 l 0.3108592,-3.06972 c 3.923e-4,-0.004 8.704e-4,-0.007 0.00123,-0.011 l 0.6166428,-3.02326 c 8.704e-4,-0.004 0.00123,-0.007 0.00245,-0.011 l 0.9182212,-2.94545 c 0.00123,-0.004 0.00245,-0.007 0.0049,-0.011 l 1.2096363,-2.83826 c 0.00123,-0.004 0.00245,-0.007 0.0049,-0.01 l 1.4892449,-2.70217 c 0.0012,-0.002 0.0025,-0.006 0.0049,-0.01 l 1.75364,-2.53923 c 0.0025,-0.002 0.0049,-0.006 0.0061,-0.009 l 1.999461,-2.35001 c 0.0025,-0.002 0.0049,-0.006 0.0074,-0.009 l 2.225004,-2.13715 c 0.0025,-0.002 0.0049,-0.005 0.0086,-0.006 l 2.429412,-1.90316 c 0.0025,-0.002 0.0061,-0.005 0.0098,-0.006 l 2.607656,-1.64889 c 0.0037,-0.001 0.0061,-0.004 0.0098,-0.005 l 2.760567,-1.37774 c 0.0037,-0.001 0.0061,-0.004 0.0098,-0.005 l 2.884727,-1.09392 c 0.0037,-10e-4 0.0074,-0.002 0.01103,-0.004 l 2.980845,-0.79826 c 0.0037,-8.7e-4 0.0074,-0.001 0.01103,-0.001 l 3.045232,-0.49417 c 0.0037,-4.3e-4 0.0074,-8.7e-4 0.01103,-8.7e-4 l 3.079855,-0.18583 c 0.0037,-1.9e-4 0.0074,-1.9e-4 0.01103,0 l 3.083239,0.12501 c 0.0037,1.1e-4 0.0074,3.9e-4 0.01103,8.7e-4 l 3.054514,0.43502 c 0.0037,3.8e-4 0.0074,8.8e-4 0.01103,0.001 l 2.99623,0.73998 c 0.0037,8.7e-4 0.0061,0.001 0.0098,0.002 l 2.905851,1.03732 c 0.0037,10e-4 0.0074,0.002 0.0098,0.005 l 2.787581,1.32369 c 0.0025,0.001 0.0061,0.004 0.0098,0.006 l 2.639753,1.59652 c 0.0025,0.002 0.0061,0.005 0.0098,0.006 l 2.449701,1.84318 c 0.02293,0.011 0.04119,0.0306 0.05149,0.0541 l 0.0012,0.004 c 0.0037,0.009 0.0061,0.0172 0.0074,0.0262 l 9.69e-4,0.001 v 0.005 c 3.31e-4,0.002 3.31e-4,0.005 9.68e-4,0.006 v 0.005 c -9.8e-5,0.004 -3.19e-4,0.007 -9.68e-4,0.011 -2.21e-4,0.002 -3.19e-4,0.005 -9.69e-4,0.006 l -9.81e-4,0.005 c -0.0012,0.007 -0.0037,0.0143 -0.0074,0.0211 -0.0074,0.0186 -0.02072,0.0347 -0.03715,0.0465 l -9.68e-4,8.7e-4 -0.790658,0.81094 -0.77461,0.85064 -0.745052,0.87682 -0.713789,0.90301 -0.681694,0.9275 -0.648738,0.95032 -0.614964,0.97227 -0.573561,0.97988 -9.81e-4,0.002 c -0.0098,0.0231 -0.02697,0.0422 -0.04904,0.0541 -0.0012,0.001 -0.0037,0.002 -0.0061,0.004 -0.01226,0.006 -0.02477,0.009 -0.03801,0.01 -0.01385,0.001 -0.02795,-2e-4 -0.04144,-0.005 -0.02011,-0.005 -0.03837,-0.0167 -0.05235,-0.0321 l -0.0012,-9.1e-4 -2.023943,-1.55006 -2.208944,-1.30509 -2.348338,-1.03057 -2.456456,-0.74166 -2.526558,-0.44095 -2.561205,-0.13515 -2.559512,0.17316 -2.519803,0.47896 -2.444626,0.778 -2.333123,1.06603 -2.188678,1.33804 -2.012972,1.59062 -1.806865,1.82037 -1.575407,2.02395 -1.321998,2.19882 -1.047451,2.34157 -0.760254,2.4497 -0.459533,2.52404 -0.154584,2.56034 0.154584,2.56036 0.459533,2.52403 0.760254,2.44969 1.047451,2.34157 1.321998,2.19882 1.575407,2.02395 1.806865,1.82122 2.012972,1.59062 2.188678,1.33719 2.333123,1.0652 2.444626,0.77883 2.519803,0.47897 2.559512,0.17316 2.561205,-0.13516 2.526558,-0.44093 2.456456,-0.74167 2.348338,-1.03057 2.208944,-1.30425 2.027339,-1.55429 c 0.01704,-0.0179 0.03972,-0.0294 0.06424,-0.033 0.0074,-10e-4 0.01459,-10e-4 0.02195,-10e-4 h 0.0037 l 0.0037,9.7e-4 c 0.0025,2.1e-4 0.0049,3.3e-4 0.0074,9.8e-4 0.0037,3.2e-4 0.0074,10e-4 0.01103,0.002 0.0025,3.2e-4 0.0049,9.7e-4 0.0074,0.001 l 0.0037,10e-4 c 0.02967,0.011 0.05296,0.0346 0.06424,0.0643 l 9.69e-4,0.001 0.571882,0.97734 0.614951,0.97229 0.648751,0.9503 0.681693,0.9275 0.713789,0.90218 0.74504,0.87766 0.774622,0.85148 0.791492,0.81094 0.0012,9.7e-4 c 0.01349,0.01 0.02452,0.0237 0.03212,0.0389 0.0086,0.0164 0.013,0.0347 0.01263,0.0532 v 0.005 c -2.21e-4,0.002 -3.19e-4,0.005 -9.68e-4,0.007 l -9.69e-4,0.005 c -9.81e-4,0.004 -0.0012,0.007 -0.0025,0.011 -3.31e-4,0.002 -0.0012,0.005 -0.0012,0.007 l -0.0012,0.004 c -0.0098,0.0267 -0.02881,0.0488 -0.05407,0.0617 l -0.0012,9.8e-4 -2.448009,1.84149 c -0.0025,0.002 -0.0061,0.005 -0.0098,0.006 l -2.639753,1.59822 c -0.0025,10e-4 -0.0061,0.004 -0.0098,0.005 l -2.787582,1.32367 c -0.0037,0.001 -0.0061,0.002 -0.0098,0.004 l -2.905851,1.03647 c -0.0037,10e-4 -0.0061,0.002 -0.0098,0.004 l -2.99623,0.73997 c -0.0037,9.8e-4 -0.0074,10e-4 -0.01103,10e-4 l -3.054513,0.43504 c -0.0037,3.3e-4 -0.0074,9.6e-4 -0.01103,9.6e-4 l -3.083238,0.12503 c -0.0037,1.8e-4 -0.0074,1.8e-4 -0.01103,0 z"
       id="path5272"
       inkscape:connector-curvature="0"
       sodipodi:nodetypes="cccccccccccccccccccccccccccccccccccccccccccccccccccccccccccccccccccccccccccccccccccccccccccccccccccccccccccccccccccccccccccccccccccccccccccccccccccccccccccccccccccccccccccccccccccccccccc" />
  </g>
</svg>
